<?xml version="1.0" encoding="utf-8"?>
<!-- Generator: Adobe Illustrator 19.0.0, SVG Export Plug-In . SVG Version: 6.00 Build 0)  -->
<svg version="1.1" id="layer" xmlns="http://www.w3.org/2000/svg" xmlns:xlink="http://www.w3.org/1999/xlink" x="0px" y="0px"
	 viewBox="-346 220.9 1400 400" style="enable-background:new -346 220.9 1400 400;" xml:space="preserve">
<style type="text/css">
	.st0{fill:#FFFFFF;}
</style>
<g>
	<path class="st0" d="M478.4,412.5L468,389.4c-0.4-1-1-1.4-2.1-1.4h-43.1c-0.9,0-1.7,0.8-1.7,1.7V437c0,0.9,0.8,1.7,1.7,1.7h43.1
		c1.1,0,1.7-0.4,2.1-1.3l10.5-23.2c0.1-0.3,0.2-0.5,0.2-0.8C478.6,413.1,478.6,412.8,478.4,412.5 M450.7,413.4
		c3.5,4.4,6.8,8.6,6.9,8.8c0.2,0.3,0.3,0.6,0.3,0.9c0,0.8-0.7,1.5-1.5,1.5h-3.7c-0.7,0-1.4-0.3-1.8-0.8c-0.1-0.1-1.9-2.4-4.2-5.3
		c-2.3,2.9-4.1,5.2-4.2,5.3c-0.4,0.5-1.1,0.8-1.8,0.8h-3.6c-0.8,0-1.5-0.7-1.5-1.5c0-0.3,0.1-0.7,0.3-0.9c0.1-0.2,3.4-4.4,6.9-8.8
		c-3.5-4.4-6.8-8.6-6.9-8.8c-0.2-0.3-0.3-0.6-0.3-0.9c0-0.8,0.7-1.5,1.5-1.5h3.7c0.7,0,1.4,0.3,1.8,0.8c0.1,0.1,1.9,2.4,4.2,5.3
		c2.3-2.9,4.1-5.2,4.2-5.3c0.4-0.5,1.1-0.8,1.8-0.8h3.7c0.8,0,1.5,0.7,1.5,1.5c0,0.3-0.1,0.7-0.3,0.9
		C457.5,404.8,454.2,409,450.7,413.4 M415.4,423.7v-0.1c0-8.9-5.8-12.5-16.1-15.2c-8.8-2.3-11-3.3-11-6.7v-0.1
		c0-2.5,2.2-4.4,6.5-4.4c3.7,0,7.4,1.4,11.2,3.7l0,0c0.4,0.3,1,0.2,1.3-0.2l0,0l4.9-7c0.3-0.4,0.2-0.9-0.1-1.2
		c-4.8-3.3-10.5-5.2-17.1-5.2c-10.4,0-17.8,6.1-17.8,15.3v0.1c0,10.1,6.6,12.9,16.8,15.5c8.5,2.2,10.2,3.6,10.2,6.5v0.2
		c0,3-2.8,4.8-7.3,4.8c-5.5,0-10.1-2.1-14.4-5.6l0,0c-0.4-0.3-0.9-0.3-1.3,0.1l-4.9,7l0,0c-0.3,0.3-0.3,0.8,0,1.1
		c5.9,4.7,13.1,7.1,20.3,7.1C407.8,439.5,415.4,433.8,415.4,423.7 M371.3,437.9L371.3,437.9v-49l0,0c0-0.5-0.4-0.9-0.9-0.9H360
		c-0.5,0-0.9,0.3-1.1,0.6l0,0l-12.1,20.4l-12.1-20.4c-0.3-0.4-0.6-0.6-1.1-0.6h-10.6c-0.5,0-0.9,0.4-0.9,0.9c0,0,0,0,0,0v49
		c0,0.5,0.4,0.9,0.9,0.9h9.2c0.5,0,0.9-0.4,0.9-0.9v-32.1l13.3,20.9c0.2,0.2,0.5,0.2,0.8,0l13.5-21.1v32.3c0,0.5,0.4,0.9,0.9,0.9
		h9.2C371,438.8,371.3,438.3,371.3,437.9 M318.5,438.3c0-0.1,0-0.2-0.1-0.3l-18.8-29l17.8-20.3l0,0c0-0.1,0.1-0.2,0.1-0.3
		c0-0.3-0.2-0.5-0.5-0.5l0,0h-11.5c-0.4,0-0.7,0.2-1,0.4l-17.2,20.4v-19.8v0c0-0.5-0.4-0.9-0.9-0.9H277c-0.5,0-0.9,0.4-0.9,0.9l0,0
		v49l0,0c0,0.5,0.4,0.9,0.9,0.9h9.4c0.5,0,0.9-0.4,0.9-0.9l0,0v-14.6v-1l4.9-5.3l13.2,21.5l0,0c0.2,0.2,0.4,0.3,0.6,0.3h12
		C318.3,438.8,318.5,438.6,318.5,438.3 M271.4,413.4v-0.1c0-14.3-11-25.3-27-25.3h-16.7c-0.5,0-0.9,0.4-0.9,0.9v49l0,0
		c0,0.5,0.4,0.9,0.9,0.9l0,0h16.7C260.4,438.8,271.4,427.6,271.4,413.4 M259.8,413.5c0,9-6.2,15.1-15.3,15.1H238V398h6.4
		c9.1,0,15.3,6.3,15.3,15.3V413.5z"/>
	<path class="st0" d="M227.6,451.8c0-0.1-0.1-0.3-0.1-0.4c0-0.5,0.5-1,1-1c0.5,0,0.9,0.3,1,0.8l2.6,7.9l2.6-7.9
		c0.2-0.5,0.5-0.8,1-0.8h0.2c0.5,0,0.9,0.3,1,0.8l2.6,7.9l2.6-7.9c0.2-0.4,0.5-0.7,1-0.7c0.5,0,1,0.4,1,1c0,0.1,0,0.3-0.1,0.4
		l-3.4,9.5c-0.2,0.5-0.5,0.8-1,0.8h-0.2c-0.5,0-0.8-0.3-1-0.8l-2.6-7.5l-2.6,7.5c-0.2,0.5-0.5,0.8-1,0.8h-0.2c-0.5,0-0.8-0.3-1-0.8
		L227.6,451.8z M246.7,461c0,0.6,0.5,1,1,1h6.8c0.5,0,0.9-0.4,0.9-0.9c0-0.5-0.4-0.9-0.9-0.9h-5.8v-3.1h5c0.5,0,0.9-0.4,0.9-0.9
		s-0.4-0.9-0.9-0.9h-5v-3h5.7c0.5,0,0.9-0.4,0.9-0.9c0-0.5-0.4-0.9-0.9-0.9h-6.7c-0.6,0-1,0.5-1,1L246.7,461 M263.3,461
		c0,0.6,0.5,1,1,1h3.3c3.6,0,6.1-2.5,6.1-5.7v0c0-3.2-2.5-5.7-6.1-5.7h-3.3c-0.6,0-1,0.5-1,1V461z M265.3,460.2v-7.8h2.3
		c2.4,0,4,1.7,4,3.9v0c0,2.3-1.6,3.9-4,3.9H265.3z M276.5,461c0,0.6,0.5,1,1,1h6.8c0.5,0,0.9-0.4,0.9-0.9c0-0.5-0.4-0.9-0.9-0.9
		h-5.7v-3.1h5c0.5,0,0.9-0.4,0.9-0.9s-0.4-0.9-0.9-0.9h-5v-3h5.7c0.5,0,0.9-0.4,0.9-0.9c0-0.5-0.4-0.9-0.9-0.9h-6.7
		c-0.6,0-1,0.5-1,1L276.5,461 M287.8,461c0,0.6,0.5,1,1,1h6.2c0.5,0,0.9-0.4,0.9-0.9s-0.4-0.9-0.9-0.9h-5.2v-8.7c0-0.5-0.5-1-1-1
		c-0.6,0-1,0.5-1,1C287.8,451.4,287.8,461,287.8,461z M298.3,461c0,0.6,0.5,1,1,1h6.8c0.5,0,0.9-0.4,0.9-0.9c0-0.5-0.4-0.9-0.9-0.9
		h-5.8v-3.1h5c0.5,0,0.9-0.4,0.9-0.9s-0.4-0.9-0.9-0.9h-5v-3h5.7c0.5,0,0.9-0.4,0.9-0.9c0-0.5-0.4-0.9-0.9-0.9h-6.7
		c-0.6,0-1,0.5-1,1V461 M312.5,461.1c0,0.5,0.5,1,1,1c0.5,0,1-0.5,1-1v-8.7h2.8c0.5,0,0.9-0.4,0.9-0.9s-0.4-0.9-0.9-0.9h-7.6
		c-0.5,0-0.9,0.4-0.9,0.9s0.4,0.9,0.9,0.9h2.8V461.1z M320.7,461c0,0.6,0.5,1,1,1h6.8c0.5,0,0.9-0.4,0.9-0.9c0-0.5-0.4-0.9-0.9-0.9
		h-5.8v-3.1h5c0.5,0,0.9-0.4,0.9-0.9s-0.4-0.9-0.9-0.9h-5v-3h5.7c0.5,0,0.9-0.4,0.9-0.9c0-0.5-0.4-0.9-0.9-0.9h-6.7
		c-0.6,0-1,0.5-1,1V461 M337.3,461c0,0.6,0.5,1,1,1h4.3c2.6,0,4.2-1.1,4.2-3.1v0c0-1.6-0.9-2.3-2.3-2.8c0.8-0.5,1.6-1.2,1.6-2.6l0,0
		c0-0.8-0.3-1.4-0.8-1.9c-0.7-0.7-1.7-1-3-1h-4.2c-0.6,0-1,0.5-1,1V461L337.3,461z M339.2,455.4v-3.1h2.9c1.3,0,2,0.5,2,1.5v0
		c0,1-0.9,1.6-2.2,1.6H339.2L339.2,455.4z M339.2,460.2v-3.1h3.2c1.6,0,2.3,0.6,2.3,1.6v0c0,1-0.8,1.6-2.2,1.6L339.2,460.2
		L339.2,460.2z M349.4,461c0,0.6,0.5,1,1,1h6.2c0.5,0,0.9-0.4,0.9-0.9s-0.4-0.9-0.9-0.9h-5.2v-8.7c0-0.5-0.5-1-1-1c-0.6,0-1,0.5-1,1
		V461L349.4,461z M358.8,456.3c0,3.2,2.5,5.9,6,5.9s6-2.7,6-6v0c0-3.2-2.5-5.9-6-5.9C361.3,450.3,358.8,453,358.8,456.3L358.8,456.3
		 M368.7,456.3c0,2.2-1.6,4-3.9,4s-3.9-1.8-3.9-4.1v0c0-2.2,1.6-4.1,3.9-4.1C367.1,452.2,368.7,454,368.7,456.3L368.7,456.3
		 M373.1,456.3c0,3.2,2.5,5.9,6,5.9c3.5,0,6-2.7,6-6v0c0-3.2-2.5-5.9-6-5.9C375.6,450.3,373.1,453,373.1,456.3L373.1,456.3
		 M383,456.3c0,2.2-1.6,4-3.9,4c-2.3,0-3.9-1.8-3.9-4.1v0c0-2.2,1.6-4.1,3.9-4.1C381.4,452.2,383,454,383,456.3L383,456.3
		 M387.9,461c0,0.6,0.5,1,1,1h3.3c3.6,0,6.1-2.5,6.1-5.7v0c0-3.2-2.5-5.7-6.1-5.7h-3.3c-0.6,0-1,0.5-1,1V461z M389.9,460.2v-7.8h2.3
		c2.4,0,4,1.7,4,3.9v0c0,2.3-1.6,3.9-4,3.9H389.9z M405.8,456.3c0,3.3,2.5,5.9,5.8,5.9c1.8,0,3.1-0.6,4.2-1.6
		c0.2-0.2,0.3-0.4,0.3-0.7c0-0.5-0.5-0.9-1-0.9c-0.3,0-0.5,0.1-0.6,0.2c-0.8,0.7-1.7,1.1-2.9,1.1c-2.2,0-3.8-1.8-3.8-4.1v0
		c0-2.3,1.6-4.1,3.8-4.1c1.1,0,2,0.4,2.7,1c0.1,0.1,0.3,0.2,0.6,0.2c0.5,0,1-0.4,1-1c0-0.4-0.2-0.6-0.4-0.8c-1-0.8-2.2-1.3-3.9-1.3
		C408.3,450.3,405.8,453,405.8,456.3L405.8,456.3 M418.2,460.7c-0.1,0.2-0.1,0.3-0.1,0.5c0,0.5,0.4,0.9,0.9,0.9
		c0.4,0,0.8-0.2,0.9-0.6l1-2.2h5.6l0.9,2.1c0.2,0.4,0.5,0.7,1,0.7c0.5,0,1-0.4,1-1c0-0.1,0-0.3-0.1-0.4l-4.3-9.5
		c-0.3-0.5-0.6-0.8-1.2-0.8h0c-0.6,0-1,0.3-1.2,0.8L418.2,460.7 M421.7,457.5l2-4.7l2,4.7H421.7z M431.8,461.1c0,0.5,0.5,1,1,1
		c0.5,0,1-0.5,1-1v-7.3l5.9,7.7c0.3,0.4,0.6,0.6,1,0.6h0.1c0.5,0,1-0.5,1-1v-9.7c0-0.5-0.5-1-1-1c-0.5,0-1,0.5-1,1v7l-5.8-7.4
		c-0.3-0.3-0.5-0.6-1-0.6h-0.2c-0.6,0-1,0.5-1,1V461.1z M444.6,456.3c0,3.3,2.5,5.9,5.8,5.9c1.8,0,3.1-0.6,4.2-1.6
		c0.2-0.2,0.3-0.4,0.3-0.7c0-0.5-0.5-0.9-1-0.9c-0.3,0-0.5,0.1-0.6,0.2c-0.8,0.7-1.7,1.1-2.9,1.1c-2.2,0-3.8-1.8-3.8-4.1v0
		c0-2.3,1.6-4.1,3.8-4.1c1.1,0,2,0.4,2.7,1c0.1,0.1,0.3,0.2,0.6,0.2c0.5,0,1-0.4,1-1c0-0.4-0.2-0.6-0.4-0.8c-1-0.8-2.2-1.3-3.9-1.3
		C447.1,450.3,444.6,453,444.6,456.3L444.6,456.3 M457.6,461c0,0.6,0.5,1,1,1h6.8c0.5,0,0.9-0.4,0.9-0.9c0-0.5-0.4-0.9-0.9-0.9h-5.8
		v-3.1h5c0.5,0,0.9-0.4,0.9-0.9s-0.4-0.9-0.9-0.9h-5v-3h5.7c0.5,0,0.9-0.4,0.9-0.9c0-0.5-0.4-0.9-0.9-0.9h-6.7c-0.6,0-1,0.5-1,1V461
		 M468.9,461.1c0,0.5,0.5,1,1,1c0.5,0,1-0.5,1-1V458h2.6l2.8,3.6c0.3,0.3,0.5,0.5,1,0.5c0.5,0,1-0.4,1-0.9c0-0.3-0.1-0.5-0.3-0.8
		l-2.2-2.8c1.6-0.5,2.6-1.6,2.6-3.4v0c0-1-0.3-1.8-1-2.5c-0.8-0.7-1.9-1.1-3.3-1.1h-4.1c-0.6,0-1,0.5-1,1L468.9,461.1L468.9,461.1z
		 M471,456.2v-3.9h2.9c1.5,0,2.4,0.7,2.4,1.9v0c0,1.2-0.9,1.9-2.3,1.9H471z"/>
</g>
</svg>
